<svg xmlns="http://www.w3.org/2000/svg" width="1080" height="1080" viewBox="0 0 1080 1080">
    <rect width="1080" height="1080" fill="#F7F3EC"/>
    <circle cx="1030" cy="60" r="220" fill="#E9EFE6" opacity="0.8"/>
    <circle cx="40" cy="1040" r="190" fill="#D9A48F" opacity="0.14"/>
    <text x="540" y="95" font-family="Poppins" font-size="52" font-weight="600" fill="#3E4A45" text-anchor="middle" letter-spacing="2">CALM YOUR MIND</text><text x="540" y="147" font-family="Poppins" font-size="27" fill="#3E4A45" fill-opacity="0.75" text-anchor="middle">Every page designed around how ADHD brains actually work</text><g>
      <rect x="340" y="256" width="420" height="560" rx="34" fill="#3E4A45" opacity="0.15"/>
      <rect x="330" y="240" width="420" height="560" rx="34" fill="#3E4A45"/>
      <rect x="356" y="266" width="368" height="508" rx="8" fill="#FFFFFF"/>
      <text x="384" y="318" font-family="Poppins" font-size="26" font-weight="600" fill="#3E4A45">Today&#8217;s Reset</text><text x="384" y="366" font-family="Poppins" font-size="15" font-weight="600" fill="#8FA98F" letter-spacing="1">BRAIN DUMP</text><rect x="384" y="384" width="134.9" height="6" rx="3" fill="#EFE8DB"/><rect x="384" y="414" width="120.7" height="6" rx="3" fill="#EFE8DB"/><rect x="384" y="444" width="106.5" height="6" rx="3" fill="#EFE8DB"/><text x="384" y="496" font-family="Poppins" font-size="15" font-weight="600" fill="#8FA98F" letter-spacing="1">JUST 3 THINGS TODAY</text><rect x="384" y="506" width="16" height="16" rx="4" fill="#8FA98F" stroke="#8FA98F" stroke-width="2"/><path d="M 387.5 514 l 3.5 3.5 l 6 -7" stroke="#FFFFFF" stroke-width="2.2" fill="none" stroke-linecap="round"/><rect x="410" y="511" width="99.39999999999999" height="6" rx="3" fill="#EFE8DB"/><rect x="384" y="542" width="16" height="16" rx="4" fill="none" stroke="#8FA98F" stroke-width="2"/><rect x="410" y="547" width="99.39999999999999" height="6" rx="3" fill="#EFE8DB"/><rect x="384" y="578" width="16" height="16" rx="4" fill="none" stroke="#8FA98F" stroke-width="2"/><rect x="410" y="583" width="99.39999999999999" height="6" rx="3" fill="#EFE8DB"/><text x="384" y="646" font-family="Poppins" font-size="15" font-weight="600" fill="#8FA98F" letter-spacing="1">DONE LIST  (YES, IT COUNTS)</text><rect x="384" y="656" width="16" height="16" rx="4" fill="#8FA98F" stroke="#8FA98F" stroke-width="2"/><path d="M 387.5 664 l 3.5 3.5 l 6 -7" stroke="#FFFFFF" stroke-width="2.2" fill="none" stroke-linecap="round"/><rect x="410" y="661" width="85.2" height="6" rx="3" fill="#EFE8DB"/><rect x="384" y="692" width="16" height="16" rx="4" fill="#8FA98F" stroke="#8FA98F" stroke-width="2"/><path d="M 387.5 700 l 3.5 3.5 l 6 -7" stroke="#FFFFFF" stroke-width="2.2" fill="none" stroke-linecap="round"/><rect x="410" y="697" width="85.2" height="6" rx="3" fill="#EFE8DB"/><text x="554.0" y="366" font-family="Poppins" font-size="15" font-weight="600" fill="#8FA98F" letter-spacing="1">TIME ANCHORS</text><text x="554.0" y="408" font-family="Poppins" font-size="13" fill="#3E4A45" fill-opacity="0.55">9 AM</text>
        <rect x="606.0" y="396" width="90.0" height="34" rx="8" fill="#E9EFE6"/><rect x="616.0" y="409" width="42.0" height="7" rx="3.5" fill="#D9E3D5"/><text x="554.0" y="460" font-family="Poppins" font-size="13" fill="#3E4A45" fill-opacity="0.55">11 AM</text>
        <rect x="606.0" y="448" width="90.0" height="34" rx="8" fill="#F7F3EC"/><text x="554.0" y="512" font-family="Poppins" font-size="13" fill="#3E4A45" fill-opacity="0.55">1 PM</text>
        <rect x="606.0" y="500" width="90.0" height="34" rx="8" fill="#E9EFE6"/><rect x="616.0" y="513" width="42.0" height="7" rx="3.5" fill="#D9E3D5"/><text x="554.0" y="564" font-family="Poppins" font-size="13" fill="#3E4A45" fill-opacity="0.55">3 PM</text>
        <rect x="606.0" y="552" width="90.0" height="34" rx="8" fill="#F7F3EC"/><text x="554.0" y="616" font-family="Poppins" font-size="13" fill="#3E4A45" fill-opacity="0.55">5 PM</text>
        <rect x="606.0" y="604" width="90.0" height="34" rx="8" fill="#E9EFE6"/><rect x="616.0" y="617" width="42.0" height="7" rx="3.5" fill="#D9E3D5"/><text x="554.0" y="668" font-family="Poppins" font-size="13" fill="#3E4A45" fill-opacity="0.55">7 PM</text>
        <rect x="606.0" y="656" width="90.0" height="34" rx="8" fill="#F7F3EC"/>
    </g><line x1="255" y1="330" x2="330" y2="345" stroke="#8FA98F" stroke-width="2"/><text x="40" y="315" font-family="Poppins" font-size="21" font-weight="500" fill="#3E4A45" text-anchor="start"><tspan x="40" dy="0">Brain dump first —</tspan><tspan x="40" dy="26">empty your head</tspan><tspan x="40" dy="26">in 5 minutes</tspan></text><line x1="255" y1="530" x2="330" y2="520" stroke="#8FA98F" stroke-width="2"/><text x="40" y="515" font-family="Poppins" font-size="21" font-weight="500" fill="#3E4A45" text-anchor="start"><tspan x="40" dy="0">Only 3 priorities.</tspan><tspan x="40" dy="26">On purpose.</tspan></text><line x1="255" y1="700" x2="330" y2="680" stroke="#8FA98F" stroke-width="2"/><text x="40" y="685" font-family="Poppins" font-size="21" font-weight="500" fill="#3E4A45" text-anchor="start"><tspan x="40" dy="0">A done list that</tspan><tspan x="40" dy="26">celebrates progress</tspan></text><line x1="825" y1="330" x2="750" y2="345" stroke="#8FA98F" stroke-width="2"/><text x="1040" y="315" font-family="Poppins" font-size="21" font-weight="500" fill="#3E4A45" text-anchor="end"><tspan x="1040" dy="0">Time anchors</tspan><tspan x="1040" dy="26">for time blindness</tspan></text><line x1="825" y1="530" x2="750" y2="520" stroke="#8FA98F" stroke-width="2"/><text x="1040" y="515" font-family="Poppins" font-size="21" font-weight="500" fill="#3E4A45" text-anchor="end"><tspan x="1040" dy="0">Focus sprint pages</tspan><tspan x="1040" dy="26">with built-in breaks</tspan></text><line x1="825" y1="700" x2="750" y2="680" stroke="#8FA98F" stroke-width="2"/><text x="1040" y="685" font-family="Poppins" font-size="21" font-weight="500" fill="#3E4A45" text-anchor="end"><tspan x="1040" dy="0">Undated — skip</tspan><tspan x="1040" dy="26">days guilt-free</tspan></text><rect x="330" y="830" width="420" height="56" rx="28" fill="#8FA98F"/><text x="540" y="866" font-family="Poppins" font-size="22" font-weight="600" fill="#FFFFFF" text-anchor="middle">Print it or use it on iPad</text><g text-anchor="middle">
      <text x="540" y="990" font-family="Poppins" font-size="34" font-weight="600" fill="#3E4A45">MindTidy</text>
      <text x="540" y="1020" font-family="Poppins" font-size="17" fill="#3E4A45" fill-opacity="0.55" letter-spacing="2">A TIDY MIND, ONE PAGE AT A TIME</text>
    </g></svg>