<svg viewBox="0 0 48 48" fill="none" xmlns="http://www.w3.org/2000/svg">
  <rect x="1" y="1" width="46" height="46" rx="12" fill="#8FA98F"/>
  <rect x="1" y="1" width="46" height="46" rx="12" stroke="#F7F3EC" stroke-width="2"/>
  <path d="M18.5 34c-3.6 0-6.5-2.9-6.5-6.5 0-1.6.6-3.1 1.5-4.2-.6-1-1-2.2-1-3.4 0-3.5 2.9-6.4 6.4-6.4.8 0 1.6.2 2.3.4C22.3 12.7 23.9 12 25.7 12c3.5 0 6.3 2.8 6.3 6.3v.2" stroke="#3E4A45" stroke-width="2.4" stroke-linecap="round" stroke-linejoin="round"/>
  <path d="M18.5 34c.4 1.6 1.9 2.8 3.6 2.8 1.3 0 2.5-.7 3.2-1.8" stroke="#3E4A45" stroke-width="2.4" stroke-linecap="round" stroke-linejoin="round"/>
  <path d="M17.5 24.5l6.5 6.5L36.5 15" stroke="#F7F3EC" stroke-width="4" stroke-linecap="round" stroke-linejoin="round"/>
</svg>
